<mxfile host="Electron" modified="2024-10-01T08:36:03.713Z" agent="Mozilla/5.0 (Windows NT 10.0; Win64; x64) AppleWebKit/537.36 (KHTML, like Gecko) draw.io/21.5.0 Chrome/112.0.5615.204 Electron/24.5.1 Safari/537.36" etag="-OTDDIqLiZN50wGBez1N" version="21.5.0" type="device">
  <diagram name="Page-1" id="2c0d36ab-eaac-3732-788b-9136903baeff">
    <mxGraphModel dx="2769.5" dy="654" grid="1" gridSize="10" guides="1" tooltips="1" connect="1" arrows="1" fold="1" page="1" pageScale="1.5" pageWidth="1169" pageHeight="827" background="none" math="0" shadow="0">
      <root>
        <mxCell id="0" />
        <mxCell id="1" parent="0" />
        <mxCell id="109" value="" style="fillColor=#CC6600;strokeColor=none;opacity=30;" parent="1" vertex="1">
          <mxGeometry x="60" y="465.5" width="1675" height="80" as="geometry" />
        </mxCell>
        <mxCell id="112" value="" style="fillColor=#10739E;strokeColor=none;opacity=30;" parent="1" vertex="1">
          <mxGeometry x="-230" y="327.75" width="2280" height="80" as="geometry" />
        </mxCell>
        <mxCell id="mEUrhmevumayRJGk3_LI-126" value="" style="fillColor=#1ba1e2;strokeColor=#006EAF;opacity=30;fontColor=#ffffff;glass=0;" vertex="1" parent="1">
          <mxGeometry x="860" y="185.5" width="250" height="80" as="geometry" />
        </mxCell>
        <mxCell id="119" value="" style="fillColor=#F2931E;strokeColor=none;opacity=30;" parent="1" vertex="1">
          <mxGeometry x="5" y="600" width="1730" height="220" as="geometry" />
        </mxCell>
        <mxCell id="2" value="index.html" style="rounded=1;fillColor=#23445D;gradientColor=none;strokeColor=none;fontColor=#FFFFFF;fontStyle=1;fontFamily=Tahoma;fontSize=14" parent="1" vertex="1">
          <mxGeometry x="890" y="185.5" width="190" height="80" as="geometry" />
        </mxCell>
        <mxCell id="9" value="" style="edgeStyle=elbowEdgeStyle;elbow=vertical;strokeWidth=2;rounded=0;entryX=0.5;entryY=0;entryDx=0;entryDy=0;" parent="1" source="2" target="10" edge="1">
          <mxGeometry x="337" y="215.5" width="100" height="100" as="geometry">
            <mxPoint x="337" y="315.5" as="sourcePoint" />
            <mxPoint x="1457" y="335.5" as="targetPoint" />
          </mxGeometry>
        </mxCell>
        <mxCell id="10" value="SobreNosotros.html" style="rounded=1;fillColor=#23445D;gradientColor=none;strokeColor=none;fontColor=#FFFFFF;fontStyle=1;fontFamily=Tahoma;fontSize=14" parent="1" vertex="1">
          <mxGeometry x="1760" y="335.5" width="190" height="64.5" as="geometry" />
        </mxCell>
        <mxCell id="12" value="Administracion.html" style="rounded=1;fillColor=#23445D;gradientColor=none;strokeColor=none;fontColor=#FFFFFF;fontStyle=1;fontFamily=Tahoma;fontSize=14" parent="1" vertex="1">
          <mxGeometry x="890" y="335.5" width="190" height="64.5" as="geometry" />
        </mxCell>
        <mxCell id="13" value="Servicios.html" style="rounded=1;fillColor=#23445D;gradientColor=none;strokeColor=none;fontColor=#FFFFFF;fontStyle=1;fontFamily=Tahoma;fontSize=14" parent="1" vertex="1">
          <mxGeometry x="-110" y="327.75" width="190" height="64.5" as="geometry" />
        </mxCell>
        <mxCell id="25" value="Empleados.html" style="rounded=1;fillColor=#23445D;gradientColor=none;strokeColor=none;fontColor=#FFFFFF;fontStyle=1;fontFamily=Tahoma;fontSize=14" parent="1" vertex="1">
          <mxGeometry x="662" y="475.5" width="130" height="60" as="geometry" />
        </mxCell>
        <mxCell id="26" value="Productos.html" style="rounded=1;fillColor=#23445D;gradientColor=none;strokeColor=none;fontColor=#FFFFFF;fontStyle=1;fontFamily=Tahoma;fontSize=14" parent="1" vertex="1">
          <mxGeometry x="832.5" y="475.5" width="130" height="60" as="geometry" />
        </mxCell>
        <mxCell id="27" value="Usuarios.html" style="rounded=1;fillColor=#23445D;gradientColor=none;strokeColor=none;fontColor=#FFFFFF;fontStyle=1;fontFamily=Tahoma;fontSize=14" parent="1" vertex="1">
          <mxGeometry x="475" y="475.5" width="130" height="60" as="geometry" />
        </mxCell>
        <mxCell id="28" value="Reparaciones.html" style="rounded=1;fillColor=#23445D;gradientColor=none;strokeColor=none;fontColor=#FFFFFF;fontStyle=1;fontFamily=Tahoma;fontSize=14" parent="1" vertex="1">
          <mxGeometry x="65" y="475.5" width="140" height="60" as="geometry" />
        </mxCell>
        <mxCell id="29" value="Proveedores.hmtl" style="rounded=1;fillColor=#23445D;gradientColor=none;strokeColor=none;fontColor=#FFFFFF;fontStyle=1;fontFamily=Tahoma;fontSize=14" parent="1" vertex="1">
          <mxGeometry x="1011.75" y="475.5" width="142" height="60" as="geometry" />
        </mxCell>
        <mxCell id="30" value="Vehiculos.html" style="rounded=1;fillColor=#23445D;gradientColor=none;strokeColor=none;fontColor=#FFFFFF;fontStyle=1;fontFamily=Tahoma;fontSize=14" parent="1" vertex="1">
          <mxGeometry x="1385" y="475.5" width="130" height="60" as="geometry" />
        </mxCell>
        <mxCell id="31" value="AddReparacion.html" style="rounded=1;fillColor=#23445D;gradientColor=none;strokeColor=none;fontColor=#FFFFFF;fontStyle=1;fontFamily=Tahoma;fontSize=14" parent="1" vertex="1">
          <mxGeometry x="30" y="620" width="185" height="60" as="geometry" />
        </mxCell>
        <mxCell id="32" value="UpdReparacion.html" style="rounded=1;fillColor=#23445D;gradientColor=none;strokeColor=none;fontColor=#FFFFFF;fontStyle=1;fontFamily=Tahoma;fontSize=14" parent="1" vertex="1">
          <mxGeometry x="20" y="740" width="205" height="60" as="geometry" />
        </mxCell>
        <mxCell id="33" value="Servicios.html" style="rounded=1;fillColor=#23445D;gradientColor=none;strokeColor=none;fontColor=#FFFFFF;fontStyle=1;fontFamily=Tahoma;fontSize=14" parent="1" vertex="1">
          <mxGeometry x="1195" y="475.5" width="130" height="60" as="geometry" />
        </mxCell>
        <mxCell id="34" value="Clientes.html" style="rounded=1;fillColor=#23445D;gradientColor=none;strokeColor=none;fontColor=#FFFFFF;fontStyle=1;fontFamily=Tahoma;fontSize=14" parent="1" vertex="1">
          <mxGeometry x="295" y="475.5" width="130" height="60" as="geometry" />
        </mxCell>
        <mxCell id="35" value="Categorias.html" style="rounded=1;fillColor=#23445D;gradientColor=none;strokeColor=none;fontColor=#FFFFFF;fontStyle=1;fontFamily=Tahoma;fontSize=14" parent="1" vertex="1">
          <mxGeometry x="1575" y="475.5" width="130" height="60" as="geometry" />
        </mxCell>
        <mxCell id="36" value="AddProductos.html" style="rounded=1;fillColor=#23445D;gradientColor=none;strokeColor=none;fontColor=#FFFFFF;fontStyle=1;fontFamily=Tahoma;fontSize=14" parent="1" vertex="1">
          <mxGeometry x="835" y="620" width="140" height="60" as="geometry" />
        </mxCell>
        <mxCell id="37" value="UpdProductos.html" style="rounded=1;fillColor=#23445D;gradientColor=none;strokeColor=none;fontColor=#FFFFFF;fontStyle=1;fontFamily=Tahoma;fontSize=14" parent="1" vertex="1">
          <mxGeometry x="832.5" y="740" width="140" height="60" as="geometry" />
        </mxCell>
        <mxCell id="38" value="AddProveedor.html" style="rounded=1;fillColor=#23445D;gradientColor=none;strokeColor=none;fontColor=#FFFFFF;fontStyle=1;fontFamily=Tahoma;fontSize=14" parent="1" vertex="1">
          <mxGeometry x="1015" y="620" width="140" height="60" as="geometry" />
        </mxCell>
        <mxCell id="39" value="UpdProveedor.html" style="rounded=1;fillColor=#23445D;gradientColor=none;strokeColor=none;fontColor=#FFFFFF;fontStyle=1;fontFamily=Tahoma;fontSize=14" parent="1" vertex="1">
          <mxGeometry x="1010" y="740" width="150" height="60" as="geometry" />
        </mxCell>
        <mxCell id="59" value="" style="edgeStyle=elbowEdgeStyle;elbow=vertical;strokeWidth=2;rounded=0" parent="1" source="2" target="12" edge="1">
          <mxGeometry x="347" y="225.5" width="100" height="100" as="geometry">
            <mxPoint x="861.9999999999999" y="275.5" as="sourcePoint" />
            <mxPoint x="1466.9999999999998" y="345.5" as="targetPoint" />
          </mxGeometry>
        </mxCell>
        <mxCell id="61" value="" style="edgeStyle=elbowEdgeStyle;elbow=vertical;strokeWidth=2;rounded=0" parent="1" source="2" target="13" edge="1">
          <mxGeometry x="-23" y="135.5" width="100" height="100" as="geometry">
            <mxPoint x="-23" y="235.5" as="sourcePoint" />
            <mxPoint x="77" y="135.5" as="targetPoint" />
          </mxGeometry>
        </mxCell>
        <mxCell id="100" value="" style="edgeStyle=elbowEdgeStyle;elbow=vertical;strokeWidth=2;rounded=0;exitX=0.5;exitY=1;exitDx=0;exitDy=0;" parent="1" target="25" edge="1">
          <mxGeometry x="-23" y="135.5" width="100" height="100" as="geometry">
            <mxPoint x="987" y="400" as="sourcePoint" />
            <mxPoint x="315" y="150.5" as="targetPoint" />
          </mxGeometry>
        </mxCell>
        <mxCell id="101" value="" style="edgeStyle=elbowEdgeStyle;elbow=vertical;strokeWidth=2;rounded=0;exitX=0.5;exitY=1;exitDx=0;exitDy=0;" parent="1" target="29" edge="1">
          <mxGeometry x="-23" y="135.5" width="100" height="100" as="geometry">
            <mxPoint x="987" y="400" as="sourcePoint" />
            <mxPoint x="315" y="150.5" as="targetPoint" />
          </mxGeometry>
        </mxCell>
        <mxCell id="102" value="" style="edgeStyle=elbowEdgeStyle;elbow=vertical;strokeWidth=2;rounded=0;exitX=0.5;exitY=1;exitDx=0;exitDy=0;" parent="1" target="33" edge="1">
          <mxGeometry x="-23" y="135.5" width="100" height="100" as="geometry">
            <mxPoint x="987" y="400" as="sourcePoint" />
            <mxPoint x="315" y="150.5" as="targetPoint" />
          </mxGeometry>
        </mxCell>
        <mxCell id="mEUrhmevumayRJGk3_LI-123" value="LEVEL 1" style="text;html=1;strokeColor=none;fillColor=none;align=center;verticalAlign=middle;whiteSpace=wrap;rounded=0;fontSize=18;" vertex="1" parent="1">
          <mxGeometry x="487" y="260" width="170" height="30" as="geometry" />
        </mxCell>
        <mxCell id="mEUrhmevumayRJGk3_LI-129" value="" style="edgeStyle=elbowEdgeStyle;elbow=vertical;strokeWidth=2;rounded=0;exitX=0.5;exitY=1;exitDx=0;exitDy=0;entryX=0.5;entryY=0;entryDx=0;entryDy=0;" edge="1" parent="1" target="34">
          <mxGeometry x="-23" y="135.5" width="100" height="100" as="geometry">
            <mxPoint x="987" y="400" as="sourcePoint" />
            <mxPoint x="717" y="486" as="targetPoint" />
          </mxGeometry>
        </mxCell>
        <mxCell id="mEUrhmevumayRJGk3_LI-130" value="" style="edgeStyle=elbowEdgeStyle;elbow=vertical;strokeWidth=2;rounded=0;entryX=0.5;entryY=0;entryDx=0;entryDy=0;" edge="1" parent="1" target="30">
          <mxGeometry x="-23" y="135.5" width="100" height="100" as="geometry">
            <mxPoint x="985" y="430" as="sourcePoint" />
            <mxPoint x="727" y="496" as="targetPoint" />
            <Array as="points">
              <mxPoint x="1395" y="440" />
              <mxPoint x="1135" y="440" />
            </Array>
          </mxGeometry>
        </mxCell>
        <mxCell id="mEUrhmevumayRJGk3_LI-131" value="" style="edgeStyle=elbowEdgeStyle;elbow=vertical;strokeWidth=2;rounded=0;exitX=0.5;exitY=1;exitDx=0;exitDy=0;entryX=0.5;entryY=0;entryDx=0;entryDy=0;" edge="1" parent="1" target="26">
          <mxGeometry x="-23" y="135.5" width="100" height="100" as="geometry">
            <mxPoint x="987" y="400" as="sourcePoint" />
            <mxPoint x="737" y="506" as="targetPoint" />
          </mxGeometry>
        </mxCell>
        <mxCell id="mEUrhmevumayRJGk3_LI-132" value="" style="edgeStyle=elbowEdgeStyle;elbow=vertical;strokeWidth=2;rounded=0;exitX=0.5;exitY=1;exitDx=0;exitDy=0;entryX=0.5;entryY=0;entryDx=0;entryDy=0;" edge="1" parent="1" target="28">
          <mxGeometry x="-23" y="135.5" width="100" height="100" as="geometry">
            <mxPoint x="987" y="400" as="sourcePoint" />
            <mxPoint x="460" y="486" as="targetPoint" />
          </mxGeometry>
        </mxCell>
        <mxCell id="mEUrhmevumayRJGk3_LI-133" value="" style="edgeStyle=elbowEdgeStyle;elbow=vertical;strokeWidth=2;rounded=0;exitX=0.5;exitY=1;exitDx=0;exitDy=0;entryX=0.5;entryY=0;entryDx=0;entryDy=0;" edge="1" parent="1" target="27">
          <mxGeometry x="-23" y="135.5" width="100" height="100" as="geometry">
            <mxPoint x="987" y="400" as="sourcePoint" />
            <mxPoint x="470" y="496" as="targetPoint" />
          </mxGeometry>
        </mxCell>
        <mxCell id="mEUrhmevumayRJGk3_LI-134" value="" style="edgeStyle=elbowEdgeStyle;elbow=vertical;strokeWidth=2;rounded=0;exitX=0.5;exitY=1;exitDx=0;exitDy=0;entryX=0.5;entryY=0;entryDx=0;entryDy=0;" edge="1" parent="1" source="12" target="35">
          <mxGeometry x="-23" y="135.5" width="100" height="100" as="geometry">
            <mxPoint x="987" y="400" as="sourcePoint" />
            <mxPoint x="1237.5" y="620" as="targetPoint" />
          </mxGeometry>
        </mxCell>
        <mxCell id="mEUrhmevumayRJGk3_LI-135" value="AddClientes.html" style="rounded=1;fillColor=#23445D;gradientColor=none;strokeColor=none;fontColor=#FFFFFF;fontStyle=1;fontFamily=Tahoma;fontSize=14" vertex="1" parent="1">
          <mxGeometry x="285" y="620" width="130" height="60" as="geometry" />
        </mxCell>
        <mxCell id="mEUrhmevumayRJGk3_LI-136" value="UpdClientes.html" style="rounded=1;fillColor=#23445D;gradientColor=none;strokeColor=none;fontColor=#FFFFFF;fontStyle=1;fontFamily=Tahoma;fontSize=14" vertex="1" parent="1">
          <mxGeometry x="285" y="740" width="130" height="60" as="geometry" />
        </mxCell>
        <mxCell id="mEUrhmevumayRJGk3_LI-137" value="AddUsuarios.html" style="rounded=1;fillColor=#23445D;gradientColor=none;strokeColor=none;fontColor=#FFFFFF;fontStyle=1;fontFamily=Tahoma;fontSize=14" vertex="1" parent="1">
          <mxGeometry x="475" y="620" width="130" height="60" as="geometry" />
        </mxCell>
        <mxCell id="mEUrhmevumayRJGk3_LI-138" value="AddEmpleados.html" style="rounded=1;fillColor=#23445D;gradientColor=none;strokeColor=none;fontColor=#FFFFFF;fontStyle=1;fontFamily=Tahoma;fontSize=14" vertex="1" parent="1">
          <mxGeometry x="652" y="620" width="143" height="60" as="geometry" />
        </mxCell>
        <mxCell id="mEUrhmevumayRJGk3_LI-139" value="UpdUsuarios.html" style="rounded=1;fillColor=#23445D;gradientColor=none;strokeColor=none;fontColor=#FFFFFF;fontStyle=1;fontFamily=Tahoma;fontSize=14" vertex="1" parent="1">
          <mxGeometry x="475" y="740" width="130" height="60" as="geometry" />
        </mxCell>
        <mxCell id="mEUrhmevumayRJGk3_LI-140" value="UpdEmpleados.html" style="rounded=1;fillColor=#23445D;gradientColor=none;strokeColor=none;fontColor=#FFFFFF;fontStyle=1;fontFamily=Tahoma;fontSize=14" vertex="1" parent="1">
          <mxGeometry x="645" y="740" width="150" height="60" as="geometry" />
        </mxCell>
        <mxCell id="mEUrhmevumayRJGk3_LI-141" value="AddVehiculos.html" style="rounded=1;fillColor=#23445D;gradientColor=none;strokeColor=none;fontColor=#FFFFFF;fontStyle=1;fontFamily=Tahoma;fontSize=14" vertex="1" parent="1">
          <mxGeometry x="1395" y="620" width="130" height="60" as="geometry" />
        </mxCell>
        <mxCell id="mEUrhmevumayRJGk3_LI-142" value="AddServicios.html" style="rounded=1;fillColor=#23445D;gradientColor=none;strokeColor=none;fontColor=#FFFFFF;fontStyle=1;fontFamily=Tahoma;fontSize=14" vertex="1" parent="1">
          <mxGeometry x="1215" y="620" width="130" height="60" as="geometry" />
        </mxCell>
        <mxCell id="mEUrhmevumayRJGk3_LI-143" value="UpdServicios.html" style="rounded=1;fillColor=#23445D;gradientColor=none;strokeColor=none;fontColor=#FFFFFF;fontStyle=1;fontFamily=Tahoma;fontSize=14" vertex="1" parent="1">
          <mxGeometry x="1215" y="740" width="130" height="60" as="geometry" />
        </mxCell>
        <mxCell id="mEUrhmevumayRJGk3_LI-144" value="UpdVehiculos.html" style="rounded=1;fillColor=#23445D;gradientColor=none;strokeColor=none;fontColor=#FFFFFF;fontStyle=1;fontFamily=Tahoma;fontSize=14" vertex="1" parent="1">
          <mxGeometry x="1395" y="740" width="130" height="60" as="geometry" />
        </mxCell>
        <mxCell id="mEUrhmevumayRJGk3_LI-145" value="UpdCategorias.html" style="rounded=1;fillColor=#23445D;gradientColor=none;strokeColor=none;fontColor=#FFFFFF;fontStyle=1;fontFamily=Tahoma;fontSize=14" vertex="1" parent="1">
          <mxGeometry x="1575" y="740" width="150" height="60" as="geometry" />
        </mxCell>
        <mxCell id="mEUrhmevumayRJGk3_LI-146" value="AddCategorias.html" style="rounded=1;fillColor=#23445D;gradientColor=none;strokeColor=none;fontColor=#FFFFFF;fontStyle=1;fontFamily=Tahoma;fontSize=14" vertex="1" parent="1">
          <mxGeometry x="1575" y="620" width="150" height="60" as="geometry" />
        </mxCell>
        <mxCell id="mEUrhmevumayRJGk3_LI-149" value="" style="endArrow=none;html=1;rounded=0;strokeWidth=2;" edge="1" parent="1">
          <mxGeometry width="50" height="50" relative="1" as="geometry">
            <mxPoint x="-55" y="770" as="sourcePoint" />
            <mxPoint x="-55" y="600" as="targetPoint" />
          </mxGeometry>
        </mxCell>
        <mxCell id="mEUrhmevumayRJGk3_LI-151" value="" style="endArrow=classic;html=1;rounded=0;strokeWidth=2;entryX=0;entryY=0.5;entryDx=0;entryDy=0;" edge="1" parent="1" target="31">
          <mxGeometry width="50" height="50" relative="1" as="geometry">
            <mxPoint x="-55" y="650" as="sourcePoint" />
            <mxPoint x="-35" y="610" as="targetPoint" />
          </mxGeometry>
        </mxCell>
        <mxCell id="mEUrhmevumayRJGk3_LI-152" value="" style="endArrow=classic;html=1;rounded=0;strokeWidth=2;entryX=0;entryY=0.5;entryDx=0;entryDy=0;" edge="1" parent="1" target="32">
          <mxGeometry width="50" height="50" relative="1" as="geometry">
            <mxPoint x="-55" y="770" as="sourcePoint" />
            <mxPoint x="65" y="769.38" as="targetPoint" />
          </mxGeometry>
        </mxCell>
        <mxCell id="mEUrhmevumayRJGk3_LI-153" value="" style="endArrow=none;html=1;rounded=0;strokeWidth=2;entryX=0.5;entryY=1;entryDx=0;entryDy=0;" edge="1" parent="1" target="28">
          <mxGeometry width="50" height="50" relative="1" as="geometry">
            <mxPoint x="-55" y="600" as="sourcePoint" />
            <mxPoint x="-55" y="610" as="targetPoint" />
            <Array as="points">
              <mxPoint x="135" y="600" />
            </Array>
          </mxGeometry>
        </mxCell>
        <mxCell id="mEUrhmevumayRJGk3_LI-154" value="" style="endArrow=none;html=1;rounded=0;strokeWidth=2;" edge="1" parent="1">
          <mxGeometry width="50" height="50" relative="1" as="geometry">
            <mxPoint x="245" y="770" as="sourcePoint" />
            <mxPoint x="245" y="600" as="targetPoint" />
          </mxGeometry>
        </mxCell>
        <mxCell id="mEUrhmevumayRJGk3_LI-155" value="" style="endArrow=none;html=1;rounded=0;strokeWidth=2;entryX=0.5;entryY=1;entryDx=0;entryDy=0;" edge="1" parent="1" target="34">
          <mxGeometry width="50" height="50" relative="1" as="geometry">
            <mxPoint x="245" y="600" as="sourcePoint" />
            <mxPoint x="355" y="545.5" as="targetPoint" />
            <Array as="points">
              <mxPoint x="295" y="600" />
              <mxPoint x="360" y="600" />
            </Array>
          </mxGeometry>
        </mxCell>
        <mxCell id="mEUrhmevumayRJGk3_LI-156" value="" style="endArrow=classic;html=1;rounded=0;strokeWidth=2;entryX=0;entryY=0.5;entryDx=0;entryDy=0;" edge="1" parent="1" target="mEUrhmevumayRJGk3_LI-135">
          <mxGeometry width="50" height="50" relative="1" as="geometry">
            <mxPoint x="245" y="650" as="sourcePoint" />
            <mxPoint x="240" y="660" as="targetPoint" />
          </mxGeometry>
        </mxCell>
        <mxCell id="mEUrhmevumayRJGk3_LI-157" value="" style="endArrow=classic;html=1;rounded=0;strokeWidth=2;entryX=0;entryY=0.5;entryDx=0;entryDy=0;" edge="1" parent="1" target="mEUrhmevumayRJGk3_LI-136">
          <mxGeometry width="50" height="50" relative="1" as="geometry">
            <mxPoint x="245" y="770" as="sourcePoint" />
            <mxPoint x="275" y="830" as="targetPoint" />
          </mxGeometry>
        </mxCell>
        <mxCell id="mEUrhmevumayRJGk3_LI-158" value="" style="endArrow=none;html=1;rounded=0;strokeWidth=2;" edge="1" parent="1">
          <mxGeometry width="50" height="50" relative="1" as="geometry">
            <mxPoint x="435" y="770" as="sourcePoint" />
            <mxPoint x="435" y="600" as="targetPoint" />
          </mxGeometry>
        </mxCell>
        <mxCell id="mEUrhmevumayRJGk3_LI-159" value="" style="endArrow=classic;html=1;rounded=0;strokeWidth=2;" edge="1" parent="1">
          <mxGeometry width="50" height="50" relative="1" as="geometry">
            <mxPoint x="435" y="650" as="sourcePoint" />
            <mxPoint x="475" y="650" as="targetPoint" />
          </mxGeometry>
        </mxCell>
        <mxCell id="mEUrhmevumayRJGk3_LI-160" value="" style="endArrow=classic;html=1;rounded=0;strokeWidth=2;" edge="1" parent="1">
          <mxGeometry width="50" height="50" relative="1" as="geometry">
            <mxPoint x="435" y="770" as="sourcePoint" />
            <mxPoint x="475" y="770" as="targetPoint" />
          </mxGeometry>
        </mxCell>
        <mxCell id="mEUrhmevumayRJGk3_LI-161" value="" style="endArrow=none;html=1;rounded=0;strokeWidth=2;" edge="1" parent="1">
          <mxGeometry width="50" height="50" relative="1" as="geometry">
            <mxPoint x="435" y="600" as="sourcePoint" />
            <mxPoint x="540" y="530" as="targetPoint" />
            <Array as="points">
              <mxPoint x="475" y="599.5" />
              <mxPoint x="540" y="599.5" />
            </Array>
          </mxGeometry>
        </mxCell>
        <mxCell id="mEUrhmevumayRJGk3_LI-162" value="" style="endArrow=none;html=1;rounded=0;strokeWidth=2;" edge="1" parent="1">
          <mxGeometry width="50" height="50" relative="1" as="geometry">
            <mxPoint x="625" y="770" as="sourcePoint" />
            <mxPoint x="625" y="600" as="targetPoint" />
          </mxGeometry>
        </mxCell>
        <mxCell id="mEUrhmevumayRJGk3_LI-163" value="" style="endArrow=classic;html=1;rounded=0;strokeWidth=2;entryX=0;entryY=0.5;entryDx=0;entryDy=0;" edge="1" parent="1" target="mEUrhmevumayRJGk3_LI-138">
          <mxGeometry width="50" height="50" relative="1" as="geometry">
            <mxPoint x="625" y="650" as="sourcePoint" />
            <mxPoint x="655" y="650" as="targetPoint" />
          </mxGeometry>
        </mxCell>
        <mxCell id="mEUrhmevumayRJGk3_LI-164" value="" style="endArrow=classic;html=1;rounded=0;strokeWidth=2;entryX=0;entryY=0.5;entryDx=0;entryDy=0;" edge="1" parent="1" target="mEUrhmevumayRJGk3_LI-140">
          <mxGeometry width="50" height="50" relative="1" as="geometry">
            <mxPoint x="625" y="770" as="sourcePoint" />
            <mxPoint x="655" y="770" as="targetPoint" />
          </mxGeometry>
        </mxCell>
        <mxCell id="mEUrhmevumayRJGk3_LI-165" value="" style="endArrow=none;html=1;rounded=0;strokeWidth=2;entryX=0.5;entryY=1;entryDx=0;entryDy=0;" edge="1" parent="1" target="25">
          <mxGeometry width="50" height="50" relative="1" as="geometry">
            <mxPoint x="625" y="600" as="sourcePoint" />
            <mxPoint x="727" y="560" as="targetPoint" />
            <Array as="points">
              <mxPoint x="727" y="600" />
            </Array>
          </mxGeometry>
        </mxCell>
        <mxCell id="mEUrhmevumayRJGk3_LI-166" value="" style="endArrow=none;html=1;rounded=0;strokeWidth=2;" edge="1" parent="1">
          <mxGeometry width="50" height="50" relative="1" as="geometry">
            <mxPoint x="815" y="770" as="sourcePoint" />
            <mxPoint x="815" y="600" as="targetPoint" />
          </mxGeometry>
        </mxCell>
        <mxCell id="mEUrhmevumayRJGk3_LI-167" value="" style="endArrow=classic;html=1;rounded=0;strokeWidth=2;entryX=0;entryY=0.5;entryDx=0;entryDy=0;" edge="1" parent="1" target="36">
          <mxGeometry width="50" height="50" relative="1" as="geometry">
            <mxPoint x="815" y="650" as="sourcePoint" />
            <mxPoint x="835" y="650" as="targetPoint" />
          </mxGeometry>
        </mxCell>
        <mxCell id="mEUrhmevumayRJGk3_LI-168" value="" style="endArrow=classic;html=1;rounded=0;strokeWidth=2;entryX=0;entryY=0.5;entryDx=0;entryDy=0;" edge="1" parent="1" target="37">
          <mxGeometry width="50" height="50" relative="1" as="geometry">
            <mxPoint x="815" y="769" as="sourcePoint" />
            <mxPoint x="845" y="769" as="targetPoint" />
          </mxGeometry>
        </mxCell>
        <mxCell id="mEUrhmevumayRJGk3_LI-170" value="" style="endArrow=none;html=1;rounded=0;strokeWidth=2;entryX=0.5;entryY=1;entryDx=0;entryDy=0;" edge="1" parent="1" target="26">
          <mxGeometry width="50" height="50" relative="1" as="geometry">
            <mxPoint x="815" y="600" as="sourcePoint" />
            <mxPoint x="897" y="546" as="targetPoint" />
            <Array as="points">
              <mxPoint x="898" y="600" />
            </Array>
          </mxGeometry>
        </mxCell>
        <mxCell id="mEUrhmevumayRJGk3_LI-171" value="" style="endArrow=none;html=1;rounded=0;strokeWidth=2;" edge="1" parent="1">
          <mxGeometry width="50" height="50" relative="1" as="geometry">
            <mxPoint x="995" y="766.88" as="sourcePoint" />
            <mxPoint x="995" y="596.88" as="targetPoint" />
          </mxGeometry>
        </mxCell>
        <mxCell id="mEUrhmevumayRJGk3_LI-172" value="" style="endArrow=classic;html=1;rounded=0;strokeWidth=2;entryX=0;entryY=0.5;entryDx=0;entryDy=0;" edge="1" parent="1" target="38">
          <mxGeometry width="50" height="50" relative="1" as="geometry">
            <mxPoint x="995" y="646.88" as="sourcePoint" />
            <mxPoint x="1025" y="647" as="targetPoint" />
          </mxGeometry>
        </mxCell>
        <mxCell id="mEUrhmevumayRJGk3_LI-173" value="" style="endArrow=classic;html=1;rounded=0;strokeWidth=2;entryX=0;entryY=0.5;entryDx=0;entryDy=0;" edge="1" parent="1" target="39">
          <mxGeometry width="50" height="50" relative="1" as="geometry">
            <mxPoint x="995" y="765.88" as="sourcePoint" />
            <mxPoint x="1025" y="766" as="targetPoint" />
          </mxGeometry>
        </mxCell>
        <mxCell id="mEUrhmevumayRJGk3_LI-174" value="" style="endArrow=none;html=1;rounded=0;strokeWidth=2;entryX=0.5;entryY=1;entryDx=0;entryDy=0;" edge="1" parent="1" target="29">
          <mxGeometry width="50" height="50" relative="1" as="geometry">
            <mxPoint x="995" y="596.88" as="sourcePoint" />
            <mxPoint x="1078" y="532.88" as="targetPoint" />
            <Array as="points">
              <mxPoint x="1083" y="597" />
            </Array>
          </mxGeometry>
        </mxCell>
        <mxCell id="mEUrhmevumayRJGk3_LI-175" value="" style="endArrow=none;html=1;rounded=0;strokeWidth=2;" edge="1" parent="1">
          <mxGeometry width="50" height="50" relative="1" as="geometry">
            <mxPoint x="1175" y="770" as="sourcePoint" />
            <mxPoint x="1175" y="596.88" as="targetPoint" />
          </mxGeometry>
        </mxCell>
        <mxCell id="mEUrhmevumayRJGk3_LI-176" value="" style="endArrow=classic;html=1;rounded=0;strokeWidth=2;entryX=0;entryY=0.5;entryDx=0;entryDy=0;" edge="1" parent="1" target="mEUrhmevumayRJGk3_LI-142">
          <mxGeometry width="50" height="50" relative="1" as="geometry">
            <mxPoint x="1175" y="646.88" as="sourcePoint" />
            <mxPoint x="1205" y="646.88" as="targetPoint" />
          </mxGeometry>
        </mxCell>
        <mxCell id="mEUrhmevumayRJGk3_LI-177" value="" style="endArrow=classic;html=1;rounded=0;strokeWidth=2;entryX=0;entryY=0.5;entryDx=0;entryDy=0;" edge="1" parent="1" target="mEUrhmevumayRJGk3_LI-143">
          <mxGeometry width="50" height="50" relative="1" as="geometry">
            <mxPoint x="1175" y="770" as="sourcePoint" />
            <mxPoint x="1205" y="765.88" as="targetPoint" />
          </mxGeometry>
        </mxCell>
        <mxCell id="mEUrhmevumayRJGk3_LI-178" value="" style="endArrow=none;html=1;rounded=0;strokeWidth=2;entryX=0.5;entryY=1;entryDx=0;entryDy=0;" edge="1" parent="1">
          <mxGeometry width="50" height="50" relative="1" as="geometry">
            <mxPoint x="1175" y="596.88" as="sourcePoint" />
            <mxPoint x="1258" y="532.88" as="targetPoint" />
            <Array as="points">
              <mxPoint x="1258" y="596.88" />
            </Array>
          </mxGeometry>
        </mxCell>
        <mxCell id="mEUrhmevumayRJGk3_LI-179" value="" style="endArrow=none;html=1;rounded=0;strokeWidth=2;" edge="1" parent="1">
          <mxGeometry width="50" height="50" relative="1" as="geometry">
            <mxPoint x="1365" y="766.88" as="sourcePoint" />
            <mxPoint x="1365" y="596.88" as="targetPoint" />
          </mxGeometry>
        </mxCell>
        <mxCell id="mEUrhmevumayRJGk3_LI-180" value="" style="endArrow=classic;html=1;rounded=0;strokeWidth=2;entryX=0;entryY=0.5;entryDx=0;entryDy=0;" edge="1" parent="1" target="mEUrhmevumayRJGk3_LI-141">
          <mxGeometry width="50" height="50" relative="1" as="geometry">
            <mxPoint x="1365" y="650" as="sourcePoint" />
            <mxPoint x="1395" y="640" as="targetPoint" />
            <Array as="points" />
          </mxGeometry>
        </mxCell>
        <mxCell id="mEUrhmevumayRJGk3_LI-181" value="" style="endArrow=classic;html=1;rounded=0;strokeWidth=2;" edge="1" parent="1" target="mEUrhmevumayRJGk3_LI-144">
          <mxGeometry width="50" height="50" relative="1" as="geometry">
            <mxPoint x="1365" y="765.88" as="sourcePoint" />
            <mxPoint x="1395" y="765.88" as="targetPoint" />
          </mxGeometry>
        </mxCell>
        <mxCell id="mEUrhmevumayRJGk3_LI-182" value="" style="endArrow=none;html=1;rounded=0;strokeWidth=2;entryX=0.5;entryY=1;entryDx=0;entryDy=0;" edge="1" parent="1">
          <mxGeometry width="50" height="50" relative="1" as="geometry">
            <mxPoint x="1365" y="596.88" as="sourcePoint" />
            <mxPoint x="1448" y="532.88" as="targetPoint" />
            <Array as="points">
              <mxPoint x="1448" y="596.88" />
            </Array>
          </mxGeometry>
        </mxCell>
        <mxCell id="mEUrhmevumayRJGk3_LI-184" value="" style="endArrow=none;html=1;rounded=0;strokeWidth=2;" edge="1" parent="1">
          <mxGeometry width="50" height="50" relative="1" as="geometry">
            <mxPoint x="1555" y="769.5" as="sourcePoint" />
            <mxPoint x="1555" y="599.5" as="targetPoint" />
          </mxGeometry>
        </mxCell>
        <mxCell id="mEUrhmevumayRJGk3_LI-185" value="" style="endArrow=classic;html=1;rounded=0;strokeWidth=2;entryX=0;entryY=0.5;entryDx=0;entryDy=0;" edge="1" parent="1" target="mEUrhmevumayRJGk3_LI-146">
          <mxGeometry width="50" height="50" relative="1" as="geometry">
            <mxPoint x="1555" y="649.5" as="sourcePoint" />
            <mxPoint x="1585" y="649.5" as="targetPoint" />
          </mxGeometry>
        </mxCell>
        <mxCell id="mEUrhmevumayRJGk3_LI-186" value="" style="endArrow=classic;html=1;rounded=0;strokeWidth=2;entryX=0;entryY=0.5;entryDx=0;entryDy=0;" edge="1" parent="1" target="mEUrhmevumayRJGk3_LI-145">
          <mxGeometry width="50" height="50" relative="1" as="geometry">
            <mxPoint x="1555" y="768.5" as="sourcePoint" />
            <mxPoint x="1585" y="768.5" as="targetPoint" />
          </mxGeometry>
        </mxCell>
        <mxCell id="mEUrhmevumayRJGk3_LI-187" value="" style="endArrow=none;html=1;rounded=0;strokeWidth=2;" edge="1" parent="1">
          <mxGeometry width="50" height="50" relative="1" as="geometry">
            <mxPoint x="1555" y="599.5" as="sourcePoint" />
            <mxPoint x="1638" y="530" as="targetPoint" />
            <Array as="points">
              <mxPoint x="1638" y="599.5" />
            </Array>
          </mxGeometry>
        </mxCell>
        <mxCell id="mEUrhmevumayRJGk3_LI-189" value="LEVEL 2" style="text;html=1;strokeColor=none;fillColor=none;align=center;verticalAlign=middle;whiteSpace=wrap;rounded=0;fontSize=18;" vertex="1" parent="1">
          <mxGeometry x="-140" y="475.5" width="170" height="30" as="geometry" />
        </mxCell>
        <mxCell id="mEUrhmevumayRJGk3_LI-190" value="LEVEL 3" style="text;html=1;strokeColor=none;fillColor=none;align=center;verticalAlign=middle;whiteSpace=wrap;rounded=0;fontSize=18;" vertex="1" parent="1">
          <mxGeometry x="-220" y="640" width="170" height="30" as="geometry" />
        </mxCell>
      </root>
    </mxGraphModel>
  </diagram>
</mxfile>
